<?xml version="1.0" encoding="utf-8"?>
<!-- Generator: Adobe Illustrator 21.0.0, SVG Export Plug-In . SVG Version: 6.00 Build 0)  -->
<svg version="1.1" xmlns="http://www.w3.org/2000/svg" xmlns:xlink="http://www.w3.org/1999/xlink" x="0px" y="0px"
	 viewBox="0 0 124.7 34" style="enable-background:new 0 0 124.7 34;" xml:space="preserve">
<g id="layer01">
	<rect x="0.1" y="0" style="fill:transparent;" width="124.7" height="34"/>
	<rect x="0.1" y="44.8" width="124.7" height="34"/>
</g>
<style>
#layer02 path,
#layer02 circle {
	fill: #fff;
}
</style>
<g id="layer02">
	<g>
		<path d="M37.6,22.1c0.5,2.4,1.8,4.3,3.8,5.5l-0.3,0.4c-1.9-1.2-3.1-2.8-3.7-4.9c-0.5,2-1.7,3.6-3.7,4.9l-0.3-0.4
			c2.4-1.5,3.7-3.5,3.8-6c0-0.6,0-1.1,0-1.4h0.5C37.7,21,37.7,21.6,37.6,22.1z"/>
		<path d="M45.5,21.4v-0.5h6.6v0.5H49V27h3.6v0.5h-7.8V27h3.7v-5.7H45.5z"/>
		<path d="M56.6,22.2l-0.3-0.3c0.4-0.4,0.8-1,1.1-1.7l0.4,0.1c-0.1,0.2-0.2,0.4-0.3,0.7h2.6v0.4h-1.4c0,0.4-0.1,0.7-0.1,1h1.7v0.4
			h-1.8c0,0.1-0.1,0.2-0.1,0.3c0.7,0.3,1.2,0.7,1.7,1.1l-0.3,0.3c-0.4-0.3-0.9-0.7-1.5-1c-0.3,0.6-1,1.2-1.9,1.6l-0.3-0.4
			c0.9-0.4,1.5-0.9,1.8-1.5c0-0.1,0.1-0.2,0.1-0.3h-1.8v-0.4h1.9c0.1-0.3,0.1-0.6,0.1-1h-1C57.1,21.7,56.9,22,56.6,22.2z M62.9,28.2
			h-0.5v-0.4H58v0.4h-0.5v-3.5h5.4V28.2z M62.4,26v-0.9H58V26H62.4z M62.4,27.3v-0.9H58v0.9H62.4z M63.5,20.8v3.1h-2.7v-3.1H63.5z
			 M63.1,21.2h-1.8v2.3h1.8V21.2z"/>
		<path d="M71.8,22.7L71.4,23c-0.1-0.2-0.2-0.4-0.3-0.6c-0.9,0.1-2.1,0.3-3.4,0.3l-0.1-0.4c0.1,0,0.2-0.1,0.2-0.1
			c0.5-0.5,1-1.2,1.4-2l0.5,0.1c-0.4,0.8-0.9,1.5-1.4,1.9c0.8,0,1.7-0.1,2.6-0.2c-0.2-0.3-0.4-0.6-0.7-1l0.4-0.2
			C71.1,21.5,71.5,22.2,71.8,22.7z M68.5,28.2h-0.5v-4.8h3.1v4.1c0,0.4-0.2,0.7-0.7,0.7h-0.7l-0.1-0.4l0.7,0c0.2,0,0.3-0.1,0.3-0.3
			v-0.9h-2.2V28.2z M70.7,23.8h-2.2v1h2.2V23.8z M68.5,26.1h2.2v-0.9h-2.2V26.1z M72.8,24c-0.5,0-0.7-0.2-0.7-0.7v-3h0.5v1.2
			c1-0.2,1.8-0.3,2.4-0.5l0.2,0.4c-0.7,0.2-1.6,0.4-2.6,0.5v1.3c0,0.3,0.1,0.4,0.4,0.4h1.2c0.2,0,0.3,0,0.4-0.1
			c0.1-0.1,0.2-0.5,0.2-1.1l0.4,0.1c-0.1,0.7-0.2,1.1-0.3,1.3c-0.1,0.1-0.4,0.2-0.7,0.2H72.8z M72.6,27.3c0,0.2,0.1,0.3,0.4,0.3h1.3
			c0.2,0,0.3-0.1,0.4-0.1c0.1-0.1,0.2-0.5,0.2-1l0.4,0.1c-0.1,0.7-0.2,1.1-0.3,1.3c-0.1,0.1-0.4,0.2-0.7,0.2h-1.5
			c-0.5,0-0.7-0.2-0.7-0.6v-3.1h0.5v1.1c0.9-0.1,1.7-0.3,2.4-0.5l0.2,0.4c-0.8,0.2-1.7,0.4-2.6,0.5V27.3z"/>
		<path d="M86.1,20.8v0.5h-1.5v2.5h2v0.5h-2v3.9h-0.5v-3.9h-2.7c-0.1,0.9-0.2,1.7-0.5,2.3c-0.3,0.7-0.9,1.3-1.6,1.7l-0.3-0.4
			c0.7-0.4,1.2-0.9,1.5-1.6c0.2-0.5,0.3-1.2,0.4-1.9h-2.1v-0.5H81c0-0.1,0-0.3,0-0.4v-2.1h-1.6v-0.5H86.1z M81.5,23.3
			c0,0.1,0,0.3,0,0.4h2.6v-2.5h-2.6V23.3z"/>
		<path d="M91.9,21.6c-0.2-0.4-0.4-0.9-0.6-1.3l0.5-0.1c0.3,0.5,0.5,1,0.6,1.4h1.3V22h-2.2v0.9c0,0.2,0,0.4,0,0.6h1.7
			c0,2.1,0,3.3-0.1,3.8c-0.1,0.5-0.4,0.7-1,0.7c-0.1,0-0.3,0-0.6,0l-0.1-0.4c0.2,0,0.5,0,0.6,0c0.3,0,0.6-0.2,0.6-0.5
			c0.1-0.4,0.1-1.4,0.1-3.2h-1.2c-0.1,1.9-0.5,3.3-1.2,4.2L90,27.8c0.7-1,1.1-2.7,1.1-4.9V22h-0.9v-0.5H91.9z M93.8,24.1l-0.3-0.4
			c0.7-0.9,1.2-2.1,1.4-3.6l0.5,0.1c-0.1,0.5-0.2,0.9-0.3,1.3h2.7V22h-0.7c-0.1,1.5-0.4,2.8-1,3.9c0.6,0.8,1.2,1.4,2,1.9l-0.3,0.4
			c-0.8-0.4-1.4-1.1-2-1.9c-0.5,0.7-1.2,1.3-2,1.8l-0.3-0.4c0.9-0.5,1.5-1.1,2-1.8c-0.5-0.7-0.8-1.6-1.1-2.6
			C94.2,23.6,94,23.9,93.8,24.1z M94.7,22.8c0.3,1,0.6,1.9,1.1,2.7c0.5-1,0.8-2.1,0.9-3.4H95C94.9,22.3,94.8,22.5,94.7,22.8z"/>
		<path d="M108.8,20.6v0.5h-3.3v3.4h3.6V25h-3.6v3.1h-0.5V25h-3.6v-0.5h3.6v-3.4h-3.2v-0.5H108.8z M103.8,23.8l-0.4,0.2
			c-0.3-0.8-0.6-1.4-0.9-2l0.4-0.2C103.1,22.4,103.5,23.1,103.8,23.8z M108.3,21.9c-0.3,0.7-0.6,1.4-1.1,2.1l-0.4-0.2
			c0.5-0.7,0.8-1.4,1.1-2L108.3,21.9z"/>
		<path d="M113.1,23.2c0.8-0.3,1.8-1.3,2.9-3l0.5,0.2c-0.8,1.2-1.7,2.2-2.5,2.8c1.8-0.1,3.5-0.2,5.1-0.3c-0.4-0.5-0.8-1-1.1-1.4
			l0.4-0.2c0.8,0.9,1.5,1.8,2.1,2.9l-0.5,0.2c-0.2-0.4-0.5-0.7-0.7-1.1c-1.8,0.2-3.9,0.3-6.2,0.4L113.1,23.2z M119.5,28.2H119v-0.5
			h-4.8v0.5h-0.5v-3.6h5.7V28.2z M119,27.2V25h-4.8v2.2H119z"/>
	</g>
	<g>
		<path d="M42.8,6.6l-4.2,4.1l4.8,5.4h-1.9l-3.8-4.5l-1.2,1.2v3.3h-1.4V6.6h1.4v4.6l4.6-4.6H42.8z"/>
		<path d="M50.4,6.6l3.6,9.5h-1.6l-0.9-2.4h-4.1l-0.9,2.4h-1.5l3.6-9.5H50.4z M51.1,12.4l-1.6-4.3h-0.1l-1.6,4.3H51.1z"/>
		<path d="M58.1,6.6l4.8,7H63v-7h1.4v9.5h-1.4l-4.9-7.1h-0.1v7.1h-1.4V6.6H58.1z"/>
		<path d="M75.9,6.6l-4.2,4.1l4.8,5.4h-1.9l-3.8-4.5l-1.2,1.2v3.3h-1.4V6.6h1.4v4.6l4.6-4.6H75.9z"/>
		<path d="M83.5,6.6l3.6,9.5h-1.6l-0.9-2.4h-4.1l-0.9,2.4h-1.5l3.6-9.5H83.5z M84.3,12.4l-1.6-4.3h-0.1l-1.6,4.3H84.3z"/>
		<path d="M91.3,6.6l4.8,7h0.1v-7h1.4v9.5h-1.4l-4.9-7.1h-0.1v7.1h-1.4V6.6H91.3z"/>
		<path d="M111.7,6.6l3.6,9.5h-1.6l-0.9-2.4h-4.1l-0.9,2.4h-1.5l3.6-9.5H111.7z M112.5,12.4l-1.6-4.3h-0.1l-1.6,4.3H112.5z"/>
		<path d="M119.5,6.6v9.5H118V6.6H119.5z"/>
	</g>
	<g>
		<g>
			<g>
				<path d="M17,26.8c-0.4,0-0.8-0.3-0.8-0.8V3.4c0-0.4,0.3-0.8,0.8-0.8c0.4,0,0.8,0.3,0.8,0.8V26C17.8,26.4,17.4,26.8,17,26.8z"/>
			</g>
			<g>
				<path d="M14,23.9c-0.4,0-0.8-0.3-0.8-0.8V3.9c0-0.4,0.3-0.8,0.8-0.8c0.4,0,0.8,0.3,0.8,0.8v19.2C14.8,23.6,14.4,23.9,14,23.9z"
					/>
			</g>
			<g>
				<path d="M11,21.1c-0.4,0-0.8-0.3-0.8-0.8V5.4c0-0.4,0.3-0.8,0.8-0.8c0.4,0,0.8,0.3,0.8,0.8v14.9C11.8,20.7,11.4,21.1,11,21.1z"
					/>
			</g>
			<g>
				<path d="M8,17.8c-0.4,0-0.8-0.3-0.8-0.8V8.9c0-0.4,0.3-0.8,0.8-0.8c0.4,0,0.8,0.3,0.8,0.8v8.1C8.8,17.5,8.5,17.8,8,17.8z"/>
			</g>
			<g>
				<path d="M20,23.9c-0.4,0-0.8-0.3-0.8-0.8V3.9c0-0.4,0.3-0.8,0.8-0.8c0.4,0,0.8,0.3,0.8,0.8v19.2C20.7,23.6,20.4,23.9,20,23.9z"
					/>
			</g>
			<g>
				<path d="M23,21.1c-0.4,0-0.8-0.3-0.8-0.8V5.4c0-0.4,0.3-0.8,0.8-0.8c0.4,0,0.8,0.3,0.8,0.8v14.9C23.7,20.7,23.4,21.1,23,21.1z"
					/>
			</g>
			<g>
				<path d="M25.9,17.8c-0.4,0-0.8-0.3-0.8-0.8V8.9c0-0.4,0.3-0.8,0.8-0.8c0.4,0,0.8,0.3,0.8,0.8v8.1C26.7,17.5,26.4,17.8,25.9,17.8
					z"/>
			</g>
			<g>
				<path d="M17,31.1c-0.4,0-0.8-0.3-0.8-0.8v-1.1c0-0.4,0.3-0.8,0.8-0.8c0.4,0,0.8,0.3,0.8,0.8v1.1C17.8,30.8,17.4,31.1,17,31.1z"
					/>
			</g>
			<g>
				<circle cx="5.4" cy="5.3" r="1"/>
			</g>
		</g>
	</g>
	<g>
		<path class="st0" d="M37.6,66.9c0.5,2.4,1.8,4.3,3.8,5.5l-0.3,0.4c-1.9-1.2-3.1-2.8-3.7-4.9c-0.5,2-1.7,3.6-3.7,4.9l-0.3-0.4
			c2.4-1.5,3.7-3.5,3.8-6c0-0.6,0-1.1,0-1.4h0.5C37.7,65.7,37.7,66.4,37.6,66.9z"/>
		<path class="st0" d="M45.5,66.1v-0.5h6.6v0.5H49v5.7h3.6v0.5h-7.8v-0.5h3.7v-5.7H45.5z"/>
		<path class="st0" d="M56.6,67l-0.3-0.3c0.4-0.4,0.8-1,1.1-1.7l0.4,0.1c-0.1,0.2-0.2,0.4-0.3,0.7h2.6v0.4h-1.4c0,0.4-0.1,0.7-0.1,1
			h1.7v0.4h-1.8c0,0.1-0.1,0.2-0.1,0.3c0.7,0.3,1.2,0.7,1.7,1.1l-0.3,0.3c-0.4-0.3-0.9-0.7-1.5-1c-0.3,0.6-1,1.2-1.9,1.6l-0.3-0.4
			c0.9-0.4,1.5-0.9,1.8-1.5c0-0.1,0.1-0.2,0.1-0.3h-1.8v-0.4h1.9c0.1-0.3,0.1-0.6,0.1-1h-1C57.1,66.4,56.9,66.7,56.6,67z M62.9,72.9
			h-0.5v-0.4H58v0.4h-0.5v-3.5h5.4V72.9z M62.4,70.8v-0.9H58v0.9H62.4z M62.4,72.1v-0.9H58v0.9H62.4z M63.5,65.6v3.1h-2.7v-3.1H63.5
			z M63.1,66h-1.8v2.3h1.8V66z"/>
		<path class="st0" d="M71.8,67.5l-0.4,0.3c-0.1-0.2-0.2-0.4-0.3-0.6c-0.9,0.1-2.1,0.3-3.4,0.3l-0.1-0.4c0.1,0,0.2-0.1,0.2-0.1
			c0.5-0.5,1-1.2,1.4-2l0.5,0.1c-0.4,0.8-0.9,1.5-1.4,1.9c0.8,0,1.7-0.1,2.6-0.2c-0.2-0.3-0.4-0.6-0.7-1l0.4-0.2
			C71.1,66.3,71.5,66.9,71.8,67.5z M68.5,72.9h-0.5v-4.8h3.1v4.1c0,0.4-0.2,0.7-0.7,0.7h-0.7l-0.1-0.4l0.7,0c0.2,0,0.3-0.1,0.3-0.3
			v-0.9h-2.2V72.9z M70.7,68.5h-2.2v1h2.2V68.5z M68.5,70.8h2.2v-0.9h-2.2V70.8z M72.8,68.7c-0.5,0-0.7-0.2-0.7-0.7v-3h0.5v1.2
			c1-0.2,1.8-0.3,2.4-0.5l0.2,0.4c-0.7,0.2-1.6,0.4-2.6,0.5v1.3c0,0.3,0.1,0.4,0.4,0.4h1.2c0.2,0,0.3,0,0.4-0.1
			c0.1-0.1,0.2-0.5,0.2-1.1l0.4,0.1c-0.1,0.7-0.2,1.1-0.3,1.3c-0.1,0.1-0.4,0.2-0.7,0.2H72.8z M72.6,72c0,0.2,0.1,0.3,0.4,0.3h1.3
			c0.2,0,0.3-0.1,0.4-0.1c0.1-0.1,0.2-0.5,0.2-1l0.4,0.1c-0.1,0.7-0.2,1.1-0.3,1.3c-0.1,0.1-0.4,0.2-0.7,0.2h-1.5
			c-0.5,0-0.7-0.2-0.7-0.6v-3.1h0.5v1.1c0.9-0.1,1.7-0.3,2.4-0.5l0.2,0.4c-0.8,0.2-1.7,0.4-2.6,0.5V72z"/>
		<path class="st0" d="M86.1,65.5V66h-1.5v2.5h2v0.5h-2v3.9h-0.5v-3.9h-2.7c-0.1,0.9-0.2,1.7-0.5,2.3c-0.3,0.7-0.9,1.3-1.6,1.7
			l-0.3-0.4c0.7-0.4,1.2-0.9,1.5-1.6c0.2-0.5,0.3-1.2,0.4-1.9h-2.1v-0.5H81c0-0.1,0-0.3,0-0.4V66h-1.6v-0.5H86.1z M81.5,68.1
			c0,0.1,0,0.3,0,0.4h2.6V66h-2.6V68.1z"/>
		<path class="st0" d="M91.9,66.3c-0.2-0.4-0.4-0.9-0.6-1.3l0.5-0.1c0.3,0.5,0.5,1,0.6,1.4h1.3v0.5h-2.2v0.9c0,0.2,0,0.4,0,0.6h1.7
			c0,2.1,0,3.3-0.1,3.8c-0.1,0.5-0.4,0.7-1,0.7c-0.1,0-0.3,0-0.6,0l-0.1-0.4c0.2,0,0.5,0,0.6,0c0.3,0,0.6-0.2,0.6-0.5
			c0.1-0.4,0.1-1.4,0.1-3.2h-1.2c-0.1,1.9-0.5,3.3-1.2,4.2L90,72.6c0.7-1,1.1-2.7,1.1-4.9v-0.9h-0.9v-0.5H91.9z M93.8,68.9l-0.3-0.4
			c0.7-0.9,1.2-2.1,1.4-3.6l0.5,0.1c-0.1,0.5-0.2,0.9-0.3,1.3h2.7v0.5h-0.7c-0.1,1.5-0.4,2.8-1,3.9c0.6,0.8,1.2,1.4,2,1.9l-0.3,0.4
			c-0.8-0.4-1.4-1.1-2-1.9c-0.5,0.7-1.2,1.3-2,1.8l-0.3-0.4c0.9-0.5,1.5-1.1,2-1.8c-0.5-0.7-0.8-1.6-1.1-2.6
			C94.2,68.4,94,68.6,93.8,68.9z M94.7,67.5c0.3,1,0.6,1.9,1.1,2.7c0.5-1,0.8-2.1,0.9-3.4H95C94.9,67,94.8,67.3,94.7,67.5z"/>
		<path class="st0" d="M108.8,65.4v0.5h-3.3v3.4h3.6v0.5h-3.6v3.1h-0.5v-3.1h-3.6v-0.5h3.6v-3.4h-3.2v-0.5H108.8z M103.8,68.5
			l-0.4,0.2c-0.3-0.8-0.6-1.4-0.9-2l0.4-0.2C103.1,67.1,103.5,67.8,103.8,68.5z M108.3,66.7c-0.3,0.7-0.6,1.4-1.1,2.1l-0.4-0.2
			c0.5-0.7,0.8-1.4,1.1-2L108.3,66.7z"/>
		<path class="st0" d="M113.1,67.9c0.8-0.3,1.8-1.3,2.9-3l0.5,0.2c-0.8,1.2-1.7,2.2-2.5,2.8c1.8-0.1,3.5-0.2,5.1-0.3
			c-0.4-0.5-0.8-1-1.1-1.4l0.4-0.2c0.8,0.9,1.5,1.8,2.1,2.9L120,69c-0.2-0.4-0.5-0.7-0.7-1.1c-1.8,0.2-3.9,0.3-6.2,0.4L113.1,67.9z
			 M119.5,72.9H119v-0.5h-4.8v0.5h-0.5v-3.6h5.7V72.9z M119,72v-2.2h-4.8V72H119z"/>
	</g>
	<g>
		<path class="st0" d="M42.8,51.3l-4.2,4.1l4.8,5.4h-1.9l-3.8-4.5l-1.2,1.2v3.3h-1.4v-9.5h1.4v4.6l4.6-4.6H42.8z"/>
		<path class="st0" d="M50.4,51.3l3.6,9.5h-1.6l-0.9-2.4h-4.1l-0.9,2.4h-1.5l3.6-9.5H50.4z M51.1,57.2l-1.6-4.3h-0.1l-1.6,4.3H51.1z
			"/>
		<path class="st0" d="M58.1,51.3l4.8,7H63v-7h1.4v9.5h-1.4l-4.9-7.1h-0.1v7.1h-1.4v-9.5H58.1z"/>
		<path class="st0" d="M75.9,51.3l-4.2,4.1l4.8,5.4h-1.9l-3.8-4.5l-1.2,1.2v3.3h-1.4v-9.5h1.4v4.6l4.6-4.6H75.9z"/>
		<path class="st0" d="M83.5,51.3l3.6,9.5h-1.6l-0.9-2.4h-4.1l-0.9,2.4h-1.5l3.6-9.5H83.5z M84.3,57.2l-1.6-4.3h-0.1l-1.6,4.3H84.3z
			"/>
		<path class="st0" d="M91.3,51.3l4.8,7h0.1v-7h1.4v9.5h-1.4l-4.9-7.1h-0.1v7.1h-1.4v-9.5H91.3z"/>
		<path class="st0" d="M111.7,51.3l3.6,9.5h-1.6l-0.9-2.4h-4.1l-0.9,2.4h-1.5l3.6-9.5H111.7z M112.5,57.2l-1.6-4.3h-0.1l-1.6,4.3
			H112.5z"/>
		<path class="st0" d="M119.5,51.3v9.5H118v-9.5H119.5z"/>
	</g>
	<g>
		<g>
			<g>
				<path class="st0" d="M17,71.5c-0.4,0-0.8-0.3-0.8-0.8V48.2c0-0.4,0.3-0.8,0.8-0.8c0.4,0,0.8,0.3,0.8,0.8v22.6
					C17.8,71.2,17.4,71.5,17,71.5z"/>
			</g>
			<g>
				<path class="st0" d="M14,68.7c-0.4,0-0.8-0.3-0.8-0.8V48.7c0-0.4,0.3-0.8,0.8-0.8c0.4,0,0.8,0.3,0.8,0.8v19.2
					C14.8,68.3,14.4,68.7,14,68.7z"/>
			</g>
			<g>
				<path class="st0" d="M11,65.8c-0.4,0-0.8-0.3-0.8-0.8V50.2c0-0.4,0.3-0.8,0.8-0.8c0.4,0,0.8,0.3,0.8,0.8v14.9
					C11.8,65.5,11.4,65.8,11,65.8z"/>
			</g>
			<g>
				<path class="st0" d="M8,62.6c-0.4,0-0.8-0.3-0.8-0.8v-8.1c0-0.4,0.3-0.8,0.8-0.8c0.4,0,0.8,0.3,0.8,0.8v8.1
					C8.8,62.2,8.5,62.6,8,62.6z"/>
			</g>
			<g>
				<path class="st0" d="M20,68.7c-0.4,0-0.8-0.3-0.8-0.8V48.7c0-0.4,0.3-0.8,0.8-0.8c0.4,0,0.8,0.3,0.8,0.8v19.2
					C20.7,68.3,20.4,68.7,20,68.7z"/>
			</g>
			<g>
				<path class="st0" d="M23,65.8c-0.4,0-0.8-0.3-0.8-0.8V50.2c0-0.4,0.3-0.8,0.8-0.8c0.4,0,0.8,0.3,0.8,0.8v14.9
					C23.7,65.5,23.4,65.8,23,65.8z"/>
			</g>
			<g>
				<path class="st0" d="M25.9,62.6c-0.4,0-0.8-0.3-0.8-0.8v-8.1c0-0.4,0.3-0.8,0.8-0.8c0.4,0,0.8,0.3,0.8,0.8v8.1
					C26.7,62.2,26.4,62.6,25.9,62.6z"/>
			</g>
			<g>
				<path class="st0" d="M17,75.9c-0.4,0-0.8-0.3-0.8-0.8V74c0-0.4,0.3-0.8,0.8-0.8c0.4,0,0.8,0.3,0.8,0.8v1.1
					C17.8,75.5,17.4,75.9,17,75.9z"/>
			</g>
			<g>
				<circle class="st0" cx="5.4" cy="50.1" r="1"/>
			</g>
		</g>
	</g>
</g>
</svg>
