<?xml version="1.0" encoding="UTF-8"?>
<svg width="94px" height="30px" viewBox="0 0 94 30" version="1.1" xmlns="http://www.w3.org/2000/svg" xmlns:xlink="http://www.w3.org/1999/xlink">
    <!-- Generator: Sketch 48.2 (47327) - http://www.bohemiancoding.com/sketch -->
    <title>Group 55</title>
    <desc>Created with Sketch.</desc>
    <defs>
        <polygon id="path-1" points="0 34 102 34 102 0 0 0"></polygon>
    </defs>
    <g id="Page-1" stroke="none" stroke-width="1" fill="none" fill-rule="evenodd">
        <g id="Group-55" transform="translate(-4.000000, -2.000000)">
            <g id="Page-1">
                <g id="Group-30">
                    <mask id="mask-2" fill="white">
                        <use xlink:href="#path-1"></use>
                    </mask>
                    <g id="Clip-7"></g>
                    <polygon id="Fill-13" fill="#FFFFFF" mask="url(#mask-2)" points="42.6998 6.4998 38.4998 10.6008 43.2998 15.9998 41.3998 15.9998 37.5998 11.4998 36.3998 12.6998 36.3998 15.9998 34.9998 15.9998 34.9998 6.4998 36.3998 6.4998 36.3998 11.1008 40.9998 6.4998"></polygon>
                    <path d="M51.0001,12.4002 L49.4001,8.1002 L49.3001,8.1002 L47.7001,12.4002 L51.0001,12.4002 Z M50.3001,6.5002 L53.9001,16.0002 L52.3001,16.0002 L51.4001,13.6002 L47.3001,13.6002 L46.4001,16.0002 L44.9001,16.0002 L48.5001,6.5002 L50.3001,6.5002 Z" id="Fill-14" fill="#FFFFFF" mask="url(#mask-2)"></path>
                    <polygon id="Fill-15" fill="#FFFFFF" mask="url(#mask-2)" points="58.0001 6.4998 62.8001 13.4998 62.9001 13.4998 62.9001 6.4998 64.3001 6.4998 64.3001 15.9998 62.9001 15.9998 58.0001 8.8998 57.9001 8.8998 57.9001 15.9998 56.5001 15.9998 56.5001 6.4998"></polygon>
                    <polygon id="Fill-16" fill="#FFFFFF" mask="url(#mask-2)" points="75.8004 6.4998 71.6004 10.6008 76.4004 15.9998 74.4994 15.9998 70.6994 11.4998 69.4994 12.6998 69.4994 15.9998 68.1004 15.9998 68.1004 6.4998 69.4994 6.4998 69.4994 11.1008 74.1004 6.4998"></polygon>
                    <path d="M84.1998,12.4002 L82.5998,8.1002 L82.4998,8.1002 L80.8998,12.4002 L84.1998,12.4002 Z M83.3998,6.5002 L86.9998,16.0002 L85.3998,16.0002 L84.4998,13.6002 L80.3998,13.6002 L79.4998,16.0002 L77.9998,16.0002 L81.5998,6.5002 L83.3998,6.5002 Z" id="Fill-17" fill="#FFFFFF" mask="url(#mask-2)"></path>
                    <polygon id="Fill-18" fill="#FFFFFF" mask="url(#mask-2)" points="91.1998 6.4998 95.9998 13.4998 96.0998 13.4998 96.0998 6.4998 97.4998 6.4998 97.4998 15.9998 96.0998 15.9998 91.1998 8.8998 91.0998 8.8998 91.0998 15.9998 89.6998 15.9998 89.6998 6.4998"></polygon>
                    <path d="M16.9,26.7 C16.5,26.7 16.1,26.4 16.1,25.9 L16.1,3.4 C16.1,3 16.4,2.6 16.9,2.6 C17.3,2.6 17.7,2.9 17.7,3.4 L17.7,26 C17.7,26.4 17.3,26.7 16.9,26.7" id="Fill-21" fill="#FFFFFF" mask="url(#mask-2)"></path>
                    <path d="M13.9,23.9002 C13.5,23.9002 13.1,23.6002 13.1,23.1002 L13.1,3.9002 C13.1,3.5002 13.4,3.1002 13.9,3.1002 C14.3,3.1002 14.7,3.4002 14.7,3.9002 L14.7,23.1002 C14.7,23.5002 14.3,23.9002 13.9,23.9002" id="Fill-22" fill="#FFFFFF" mask="url(#mask-2)"></path>
                    <path d="M10.9,20.9998 C10.5,20.9998 10.1,20.6998 10.1,20.1998 L10.1,5.3998 C10.1,4.9998 10.4,4.6008 10.9,4.6008 C11.3,4.6008 11.7,4.8998 11.7,5.3998 L11.7,20.2998 C11.7,20.6998 11.3,20.9998 10.9,20.9998" id="Fill-23" fill="#FFFFFF" mask="url(#mask-2)"></path>
                    <path d="M7.9,17.7996 C7.5,17.7996 7.1,17.4996 7.1,16.9996 L7.1,8.9006 C7.1,8.4996 7.4,8.1006 7.9,8.1006 C8.3,8.1006 8.7,8.4006 8.7,8.9006 L8.7,16.9996 C8.7,17.4006 8.4,17.7996 7.9,17.7996" id="Fill-24" fill="#FFFFFF" mask="url(#mask-2)"></path>
                    <path d="M19.9,23.9002 C19.5,23.9002 19.1,23.6002 19.1,23.1002 L19.1,3.9002 C19.1,3.5002 19.4,3.1002 19.9,3.1002 C20.3,3.1002 20.7,3.4002 20.7,3.9002 L20.7,23.1002 C20.6,23.5002 20.3,23.9002 19.9,23.9002" id="Fill-25" fill="#FFFFFF" mask="url(#mask-2)"></path>
                    <path d="M22.9,20.9998 C22.5,20.9998 22.1,20.6998 22.1,20.1998 L22.1,5.3998 C22.1,4.9998 22.4,4.6008 22.9,4.6008 C23.3,4.6008 23.7,4.8998 23.7,5.3998 L23.7,20.2998 C23.6,20.6998 23.3,20.9998 22.9,20.9998" id="Fill-26" fill="#FFFFFF" mask="url(#mask-2)"></path>
                    <path d="M25.7999,17.7996 C25.3999,17.7996 24.9999,17.4996 24.9999,16.9996 L24.9999,8.9006 C24.9999,8.4996 25.2999,8.1006 25.7999,8.1006 C26.1999,8.1006 26.5999,8.4006 26.5999,8.9006 L26.5999,16.9996 C26.5999,17.4006 26.2999,17.7996 25.7999,17.7996" id="Fill-27" fill="#FFFFFF" mask="url(#mask-2)"></path>
                    <path d="M16.9,31.1004 C16.5,31.1004 16.1,30.7994 16.1,30.2994 L16.1,29.2004 C16.1,28.7994 16.4,28.4004 16.9,28.4004 C17.3,28.4004 17.7,28.7004 17.7,29.2004 L17.7,30.2994 C17.7,30.7004 17.3,31.1004 16.9,31.1004" id="Fill-28" fill="#FFFFFF" mask="url(#mask-2)"></path>
                    <path d="M6.2999,5.2996 C6.2999,5.8526 5.8519,6.2996 5.2999,6.2996 C4.7479,6.2996 4.2999,5.8526 4.2999,5.2996 C4.2999,4.7476 4.7479,4.2996 5.2999,4.2996 C5.8519,4.2996 6.2999,4.7476 6.2999,5.2996 Z" id="Fill-29" fill="#FFFFFF" mask="url(#mask-2)"></path>
                </g>
            </g>
            <text id="SMART-EYES" font-family="PingFangSC-Light, PingFang SC" font-size="8" font-weight="300" letter-spacing="1.53999996" fill="#FFFFFF">
                <tspan x="34" y="25">SMART EYE</tspan>
                <tspan x="93.1959997" y="25">S</tspan>
            </text>
        </g>
    </g>
</svg>