<?xml version="1.0" encoding="UTF-8"?>
<svg width="916px" height="616px" viewBox="0 0 916 616" version="1.1" xmlns="http://www.w3.org/2000/svg" xmlns:xlink="http://www.w3.org/1999/xlink">
    <!-- Generator: Sketch 48.2 (47327) - http://www.bohemiancoding.com/sketch -->
    <title>Group 15</title>
    <desc>Created with Sketch.</desc>
    <defs>
        <polygon id="path-1" points="30.0472557 10.5327723 13.2879185 23.7648071 12.3584097 22.5875164 29.5264818 9.03277225 187.337492 9.03277225 196.327952 0.0370142343 402.359984 0.0370142343 415.474812 13.1595704 499.645924 13.1595704 511.640932 1.1574938 895.44644 1.1574938 912.749335 18.4705842 911.688362 19.5309319 894.824861 2.6574938 512.262511 2.6574938 500.267503 14.6595704 414.853233 14.6595704 401.738405 1.53701423 196.949531 1.53701423 187.959071 10.5327723"></polygon>
        <filter x="-0.9%" y="-27.4%" width="101.9%" height="171.6%" filterUnits="objectBoundingBox" id="filter-2">
            <feOffset dx="0" dy="2" in="SourceAlpha" result="shadowOffsetOuter1"></feOffset>
            <feGaussianBlur stdDeviation="2.5" in="shadowOffsetOuter1" result="shadowBlurOuter1"></feGaussianBlur>
            <feColorMatrix values="0 0 0 0 0   0 0 0 0 0.809216142   0 0 0 0 1  0 0 0 1 0" type="matrix" in="shadowBlurOuter1"></feColorMatrix>
        </filter>
        <polygon id="path-3" points="911.468848 51.190897 912.968848 51.190897 912.968848 610.566906 868.833733 610.566906 868.833733 609.528782 911.468848 609.066906"></polygon>
        <filter x="-19.3%" y="-1.2%" width="138.5%" height="103.0%" filterUnits="objectBoundingBox" id="filter-4">
            <feOffset dx="0" dy="2" in="SourceAlpha" result="shadowOffsetOuter1"></feOffset>
            <feGaussianBlur stdDeviation="2.5" in="shadowOffsetOuter1" result="shadowBlurOuter1"></feGaussianBlur>
            <feColorMatrix values="0 0 0 0 0   0 0 0 0 0.809216142   0 0 0 0 1  0 0 0 1 0" type="matrix" in="shadowBlurOuter1"></feColorMatrix>
        </filter>
        <polygon id="path-5" points="858.281658 598.508613 858.281658 600.008613 588.767184 600.008613 588.767184 598.508613"></polygon>
        <filter x="-3.2%" y="-433.3%" width="106.3%" height="1233.3%" filterUnits="objectBoundingBox" id="filter-6">
            <feOffset dx="0" dy="2" in="SourceAlpha" result="shadowOffsetOuter1"></feOffset>
            <feGaussianBlur stdDeviation="2.5" in="shadowOffsetOuter1" result="shadowBlurOuter1"></feGaussianBlur>
            <feColorMatrix values="0 0 0 0 0   0 0 0 0 0.809216142   0 0 0 0 1  0 0 0 1 0" type="matrix" in="shadowBlurOuter1"></feColorMatrix>
        </filter>
        <path d="M572.357828,598.508613 L572.357828,600.008613 L534.856311,600.008613 L525.912596,591.059628 L399.031774,591.059628 L387.984833,602.113078 L344.166723,602.113078 L344.166723,600.613078 L387.363254,600.613078 L398.410194,589.559628 L526.534175,589.559628 L535.47789,598.508613 L572.357828,598.508613 Z M387.674044,600.613078 L387.143558,600.832904 L387.363254,600.613078 L387.674044,600.613078 Z" id="path-7"></path>
        <filter x="-3.7%" y="-51.8%" width="107.4%" height="235.4%" filterUnits="objectBoundingBox" id="filter-8">
            <feOffset dx="0" dy="2" in="SourceAlpha" result="shadowOffsetOuter1"></feOffset>
            <feGaussianBlur stdDeviation="2.5" in="shadowOffsetOuter1" result="shadowBlurOuter1"></feGaussianBlur>
            <feColorMatrix values="0 0 0 0 0   0 0 0 0 0.809216142   0 0 0 0 1  0 0 0 1 0" type="matrix" in="shadowBlurOuter1"></feColorMatrix>
        </filter>
        <path d="M43.6911487,611.385821 L43.1606625,611.605647 L43.3803592,611.385821 L43.6911487,611.385821 Z M54.1467577,600.613078 L327.339721,600.613078 L327.339721,601.931445 L54.7683369,602.113078 L44.0019383,612.885821 L4.42040776,612.885821 L4.42040776,42.8590378 L5.92040776,42.8590378 L5.92040776,611.385821 L43.3803592,611.385821 L54.1467577,600.613078 Z" id="path-9"></path>
        <filter x="-2.6%" y="-1.1%" width="105.3%" height="103.0%" filterUnits="objectBoundingBox" id="filter-10">
            <feOffset dx="0" dy="2" in="SourceAlpha" result="shadowOffsetOuter1"></feOffset>
            <feGaussianBlur stdDeviation="2.5" in="shadowOffsetOuter1" result="shadowBlurOuter1"></feGaussianBlur>
            <feColorMatrix values="0 0 0 0 0   0 0 0 0 0.809216142   0 0 0 0 1  0 0 0 1 0" type="matrix" in="shadowBlurOuter1"></feColorMatrix>
        </filter>
        <polygon id="path-11" points="94.3868303 15.7772294 94.2108095 15.8497001 0.677031093 15.8497001 0.677031093 15.3497001 94.1078803 15.3497001 108.865448 0.717523182 109.041469 0.645052474 207.219353 0.645052474 207.395374 0.717523182 219.103302 12.3259723 238.066199 12.3259723 238.066199 12.8259723 219.000373 12.8259723 218.824352 12.7535016 207.116424 1.14505247 109.144398 1.14505247"></polygon>
        <filter x="-2.9%" y="-32.9%" width="105.9%" height="192.1%" filterUnits="objectBoundingBox" id="filter-12">
            <feOffset dx="0" dy="2" in="SourceAlpha" result="shadowOffsetOuter1"></feOffset>
            <feGaussianBlur stdDeviation="2" in="shadowOffsetOuter1" result="shadowBlurOuter1"></feGaussianBlur>
            <feColorMatrix values="0 0 0 0 0   0 0 0 0 0.599569937   0 0 0 0 0.737032313  0 0 0 1 0" type="matrix" in="shadowBlurOuter1"></feColorMatrix>
        </filter>
        <polygon id="path-13" points="180.74992 37.834201 180.573899 37.9066717 80.0401204 37.9066717 80.0401204 37.4066717 180.47097 37.4066717 195.228537 22.7744947 195.404558 22.702024 293.582442 22.702024 293.758463 22.7744947 305.466391 34.3829438 324.429288 34.3829438 324.429288 34.8829438 305.363462 34.8829438 305.187441 34.8104731 293.479513 23.202024 195.507487 23.202024"></polygon>
        <filter x="-2.9%" y="-32.9%" width="105.7%" height="192.1%" filterUnits="objectBoundingBox" id="filter-14">
            <feOffset dx="0" dy="2" in="SourceAlpha" result="shadowOffsetOuter1"></feOffset>
            <feGaussianBlur stdDeviation="2" in="shadowOffsetOuter1" result="shadowBlurOuter1"></feGaussianBlur>
            <feColorMatrix values="0 0 0 0 0   0 0 0 0 0.599569937   0 0 0 0 0.737032313  0 0 0 1 0" type="matrix" in="shadowBlurOuter1"></feColorMatrix>
        </filter>
    </defs>
    <g id="Apple-TV" stroke="none" stroke-width="1" fill="none" fill-rule="evenodd" transform="translate(-120.000000, -124.000000)">
        <g id="Group-15" transform="translate(120.000000, 124.000000)">
            <g id="Group-6">
                <g id="camera_border">
                    <g id="Group-17">
                        <g id="边框">
                            <g id="Path" fill-rule="nonzero">
                                <use fill="black" fill-opacity="1" filter="url(#filter-2)" xlink:href="#path-1"></use>
                                <use fill="#00A9D0" fill-rule="evenodd" xlink:href="#path-1"></use>
                            </g>
                            <g id="Path" fill-rule="nonzero">
                                <use fill="black" fill-opacity="1" filter="url(#filter-4)" xlink:href="#path-3"></use>
                                <use fill="#00A9D0" fill-rule="evenodd" xlink:href="#path-3"></use>
                            </g>
                            <g id="Path" fill-rule="nonzero">
                                <use fill="black" fill-opacity="1" filter="url(#filter-6)" xlink:href="#path-5"></use>
                                <use fill="#00A9D0" fill-rule="evenodd" xlink:href="#path-5"></use>
                            </g>
                            <g id="Path" fill-rule="nonzero">
                                <use fill="black" fill-opacity="1" filter="url(#filter-8)" xlink:href="#path-7"></use>
                                <use fill="#00A9D0" fill-rule="evenodd" xlink:href="#path-7"></use>
                            </g>
                            <g id="Path" fill-rule="nonzero">
                                <use fill="black" fill-opacity="1" filter="url(#filter-10)" xlink:href="#path-9"></use>
                                <use fill="#00A9D0" fill-rule="evenodd" xlink:href="#path-9"></use>
                            </g>
                            <path d="M24.0889785,42.478611 L259.818046,42.478611 L262.329445,43.978611 L24.0889785,43.978611 L24.0889785,42.478611 L289.243026,42.478611 L289.243026,43.978611 L262.329445,43.978611 L314.717575,75.2688104 L376.488255,75.2688104 L386.677874,65.0731873 L533.472683,65.0731873 L545.546498,77.1541173 L614.873213,77.1541173 L662.320802,43.978611 L633.878083,43.978611 L633.878083,42.478611 L897.781567,42.478611 L897.781567,43.978611 L664.702297,43.978611 L665.132065,43.8432649 L615.345605,78.6541173 L544.924919,78.6541173 L532.851104,66.5731873 L387.299453,66.5731873 L377.109835,76.7688104 L314.510647,76.7688104 L259.226535,43.8725031 L24.0889785,43.978611 L24.0889785,42.478611 Z M664.466101,42.478611 L897.781567,42.478611 L897.781567,43.978611 L662.320802,43.978611 L664.466101,42.478611 Z" id="Path-3" fill="#00A9D0" fill-rule="nonzero"></path>
                            <rect id="Rectangle-3" fill="#03F8FF" x="238.503124" y="48.0964518" width="21.149976" height="3.84771614"></rect>
                            <rect id="Rectangle-3-Copy" fill="#03F8FF" x="667.270819" y="48.0964518" width="21.149976" height="3.84771614"></rect>
                            <polygon id="Path-4" fill="#03F8FF" points="379 81.1032852 541.808638 81.1032852 531.711303 71 388.813319 71"></polygon>
                            <ellipse id="Oval-Copy-2" fill="#03F8FF" cx="3.93066273" cy="34.6294453" rx="3.84545018" ry="3.84771614"></ellipse>
                            <ellipse id="Oval-Copy-4" fill="#03F8FF" cx="911.456905" cy="34.6294453" rx="3.84545018" ry="3.84771614"></ellipse>
                            <ellipse id="Oval-Copy-5" fill="#03F8FF" cx="910.495542" cy="18.2766517" rx="2.88408763" ry="2.88578711"></ellipse>
                            <ellipse id="Oval-Copy-3" fill="#03F8FF" cx="12.5829256" cy="24.0482259" rx="2.88408763" ry="2.88578711"></ellipse>
                            <ellipse id="Oval-Copy-6" fill="#03F8FF" cx="196.884088" cy="20.8857871" rx="2.88408763" ry="2.88578711"></ellipse>
                            <ellipse id="Oval-Copy-7" fill="#03F8FF" cx="725.913934" cy="20.2005097" rx="2.88408763" ry="2.88578711"></ellipse>
                            <ellipse id="Oval-Copy-8" fill="#03F8FF" cx="858.84909" cy="599.027033" rx="2.56824796" ry="2.56976132"></ellipse>
                            <ellipse id="Oval-Copy-9" fill="#03F8FF" cx="867.751345" cy="609.770299" rx="3.20169586" ry="3.20358249"></ellipse>
                            <path d="M34.1579136,21.9124388 L34.1579136,20.4124388 L37.1579136,20.4124388 L37.1579136,21.9124388 L34.1579136,21.9124388 Z M40.1579136,21.9124388 L40.1579136,20.4124388 L43.1579136,20.4124388 L43.1579136,21.9124388 L40.1579136,21.9124388 Z M46.1579136,21.9124388 L46.1579136,20.4124388 L49.1579136,20.4124388 L49.1579136,21.9124388 L46.1579136,21.9124388 Z M52.1579136,21.9124388 L52.1579136,20.4124388 L55.1579136,20.4124388 L55.1579136,21.9124388 L52.1579136,21.9124388 Z M58.1579136,21.9124388 L58.1579136,20.4124388 L61.1579136,20.4124388 L61.1579136,21.9124388 L58.1579136,21.9124388 Z M64.1579136,21.9124388 L64.1579136,20.4124388 L67.1579136,20.4124388 L67.1579136,21.9124388 L64.1579136,21.9124388 Z M70.1579136,21.9124388 L70.1579136,20.4124388 L73.1579136,20.4124388 L73.1579136,21.9124388 L70.1579136,21.9124388 Z M76.1579136,21.9124388 L76.1579136,20.4124388 L79.1579136,20.4124388 L79.1579136,21.9124388 L76.1579136,21.9124388 Z M82.1579136,21.9124388 L82.1579136,20.4124388 L85.1579136,20.4124388 L85.1579136,21.9124388 L82.1579136,21.9124388 Z M88.1579136,21.9124388 L88.1579136,20.4124388 L91.1579136,20.4124388 L91.1579136,21.9124388 L88.1579136,21.9124388 Z M94.1579136,21.9124388 L94.1579136,20.4124388 L97.1579136,20.4124388 L97.1579136,21.9124388 L94.1579136,21.9124388 Z M100.157914,21.9124388 L100.157914,20.4124388 L103.157914,20.4124388 L103.157914,21.9124388 L100.157914,21.9124388 Z M106.157914,21.9124388 L106.157914,20.4124388 L109.157914,20.4124388 L109.157914,21.9124388 L106.157914,21.9124388 Z M112.157914,21.9124388 L112.157914,20.4124388 L115.157914,20.4124388 L115.157914,21.9124388 L112.157914,21.9124388 Z M118.157914,21.9124388 L118.157914,20.4124388 L121.157914,20.4124388 L121.157914,21.9124388 L118.157914,21.9124388 Z M124.157914,21.9124388 L124.157914,20.4124388 L127.157914,20.4124388 L127.157914,21.9124388 L124.157914,21.9124388 Z M130.157914,21.9124388 L130.157914,20.4124388 L133.157914,20.4124388 L133.157914,21.9124388 L130.157914,21.9124388 Z M136.157914,21.9124388 L136.157914,20.4124388 L139.157914,20.4124388 L139.157914,21.9124388 L136.157914,21.9124388 Z M142.157914,21.9124388 L142.157914,20.4124388 L145.157914,20.4124388 L145.157914,21.9124388 L142.157914,21.9124388 Z M148.157914,21.9124388 L148.157914,20.4124388 L151.157914,20.4124388 L151.157914,21.9124388 L148.157914,21.9124388 Z M154.157914,21.9124388 L154.157914,20.4124388 L157.157914,20.4124388 L157.157914,21.9124388 L154.157914,21.9124388 Z M160.157914,21.9124388 L160.157914,20.4124388 L163.157914,20.4124388 L163.157914,21.9124388 L160.157914,21.9124388 Z M166.157914,21.9124388 L166.157914,20.4124388 L169.157914,20.4124388 L169.157914,21.9124388 L166.157914,21.9124388 Z M172.157914,21.9124388 L172.157914,20.4124388 L175.157914,20.4124388 L175.157914,21.9124388 L172.157914,21.9124388 Z M178.157914,21.9124388 L178.157914,20.4124388 L181.157914,20.4124388 L181.157914,21.9124388 L178.157914,21.9124388 Z M184.157914,21.9124388 L184.157914,20.4124388 L187.157914,20.4124388 L187.157914,21.9124388 L184.157914,21.9124388 Z M190.157914,21.9124388 L190.157914,20.4124388 L193.157914,20.4124388 L193.157914,21.9124388 L190.157914,21.9124388 Z" id="Path-5" fill="#03D0FF" fill-rule="nonzero"></path>
                            <path d="M732.643472,21.9124388 L732.643472,20.4124388 L735.643472,20.4124388 L735.643472,21.9124388 L732.643472,21.9124388 Z M738.643472,21.9124388 L738.643472,20.4124388 L741.643472,20.4124388 L741.643472,21.9124388 L738.643472,21.9124388 Z M744.643472,21.9124388 L744.643472,20.4124388 L747.643472,20.4124388 L747.643472,21.9124388 L744.643472,21.9124388 Z M750.643472,21.9124388 L750.643472,20.4124388 L753.643472,20.4124388 L753.643472,21.9124388 L750.643472,21.9124388 Z M756.643472,21.9124388 L756.643472,20.4124388 L759.643472,20.4124388 L759.643472,21.9124388 L756.643472,21.9124388 Z M762.643472,21.9124388 L762.643472,20.4124388 L765.643472,20.4124388 L765.643472,21.9124388 L762.643472,21.9124388 Z M768.643472,21.9124388 L768.643472,20.4124388 L771.643472,20.4124388 L771.643472,21.9124388 L768.643472,21.9124388 Z M774.643472,21.9124388 L774.643472,20.4124388 L777.643472,20.4124388 L777.643472,21.9124388 L774.643472,21.9124388 Z M780.643472,21.9124388 L780.643472,20.4124388 L783.643472,20.4124388 L783.643472,21.9124388 L780.643472,21.9124388 Z M786.643472,21.9124388 L786.643472,20.4124388 L789.643472,20.4124388 L789.643472,21.9124388 L786.643472,21.9124388 Z M792.643472,21.9124388 L792.643472,20.4124388 L795.643472,20.4124388 L795.643472,21.9124388 L792.643472,21.9124388 Z M798.643472,21.9124388 L798.643472,20.4124388 L801.643472,20.4124388 L801.643472,21.9124388 L798.643472,21.9124388 Z M804.643472,21.9124388 L804.643472,20.4124388 L807.643472,20.4124388 L807.643472,21.9124388 L804.643472,21.9124388 Z M810.643472,21.9124388 L810.643472,20.4124388 L813.643472,20.4124388 L813.643472,21.9124388 L810.643472,21.9124388 Z M816.643472,21.9124388 L816.643472,20.4124388 L819.643472,20.4124388 L819.643472,21.9124388 L816.643472,21.9124388 Z M822.643472,21.9124388 L822.643472,20.4124388 L825.643472,20.4124388 L825.643472,21.9124388 L822.643472,21.9124388 Z M828.643472,21.9124388 L828.643472,20.4124388 L831.643472,20.4124388 L831.643472,21.9124388 L828.643472,21.9124388 Z M834.643472,21.9124388 L834.643472,20.4124388 L837.643472,20.4124388 L837.643472,21.9124388 L834.643472,21.9124388 Z M840.643472,21.9124388 L840.643472,20.4124388 L843.643472,20.4124388 L843.643472,21.9124388 L840.643472,21.9124388 Z M846.643472,21.9124388 L846.643472,20.4124388 L849.643472,20.4124388 L849.643472,21.9124388 L846.643472,21.9124388 Z M852.643472,21.9124388 L852.643472,20.4124388 L855.643472,20.4124388 L855.643472,21.9124388 L852.643472,21.9124388 Z M858.643472,21.9124388 L858.643472,20.4124388 L861.643472,20.4124388 L861.643472,21.9124388 L858.643472,21.9124388 Z M864.643472,21.9124388 L864.643472,20.4124388 L867.643472,20.4124388 L867.643472,21.9124388 L864.643472,21.9124388 Z M870.643472,21.9124388 L870.643472,20.4124388 L873.643472,20.4124388 L873.643472,21.9124388 L870.643472,21.9124388 Z M876.643472,21.9124388 L876.643472,20.4124388 L879.643472,20.4124388 L879.643472,21.9124388 L876.643472,21.9124388 Z M882.643472,21.9124388 L882.643472,20.4124388 L885.643472,20.4124388 L885.643472,21.9124388 L882.643472,21.9124388 Z M888.643472,21.9124388 L888.643472,20.4124388 L891.643472,20.4124388 L891.643472,21.9124388 L888.643472,21.9124388 Z" id="Path-5-Copy-2" fill="#03D0FF" fill-rule="nonzero"></path>
                            <path d="M34.1579136,33.4555872 L34.1579136,31.9555872 L37.1579136,31.9555872 L37.1579136,33.4555872 L34.1579136,33.4555872 Z M40.1579136,33.4555872 L40.1579136,31.9555872 L43.1579136,31.9555872 L43.1579136,33.4555872 L40.1579136,33.4555872 Z M46.1579136,33.4555872 L46.1579136,31.9555872 L49.1579136,31.9555872 L49.1579136,33.4555872 L46.1579136,33.4555872 Z M52.1579136,33.4555872 L52.1579136,31.9555872 L55.1579136,31.9555872 L55.1579136,33.4555872 L52.1579136,33.4555872 Z M58.1579136,33.4555872 L58.1579136,31.9555872 L61.1579136,31.9555872 L61.1579136,33.4555872 L58.1579136,33.4555872 Z M64.1579136,33.4555872 L64.1579136,31.9555872 L67.1579136,31.9555872 L67.1579136,33.4555872 L64.1579136,33.4555872 Z M70.1579136,33.4555872 L70.1579136,31.9555872 L73.1579136,31.9555872 L73.1579136,33.4555872 L70.1579136,33.4555872 Z M76.1579136,33.4555872 L76.1579136,31.9555872 L79.1579136,31.9555872 L79.1579136,33.4555872 L76.1579136,33.4555872 Z M82.1579136,33.4555872 L82.1579136,31.9555872 L85.1579136,31.9555872 L85.1579136,33.4555872 L82.1579136,33.4555872 Z M88.1579136,33.4555872 L88.1579136,31.9555872 L91.1579136,31.9555872 L91.1579136,33.4555872 L88.1579136,33.4555872 Z M94.1579136,33.4555872 L94.1579136,31.9555872 L97.1579136,31.9555872 L97.1579136,33.4555872 L94.1579136,33.4555872 Z M100.157914,33.4555872 L100.157914,31.9555872 L103.157914,31.9555872 L103.157914,33.4555872 L100.157914,33.4555872 Z M106.157914,33.4555872 L106.157914,31.9555872 L109.157914,31.9555872 L109.157914,33.4555872 L106.157914,33.4555872 Z M112.157914,33.4555872 L112.157914,31.9555872 L115.157914,31.9555872 L115.157914,33.4555872 L112.157914,33.4555872 Z M118.157914,33.4555872 L118.157914,31.9555872 L121.157914,31.9555872 L121.157914,33.4555872 L118.157914,33.4555872 Z M124.157914,33.4555872 L124.157914,31.9555872 L127.157914,31.9555872 L127.157914,33.4555872 L124.157914,33.4555872 Z M130.157914,33.4555872 L130.157914,31.9555872 L133.157914,31.9555872 L133.157914,33.4555872 L130.157914,33.4555872 Z M136.157914,33.4555872 L136.157914,31.9555872 L139.157914,31.9555872 L139.157914,33.4555872 L136.157914,33.4555872 Z M142.157914,33.4555872 L142.157914,31.9555872 L145.157914,31.9555872 L145.157914,33.4555872 L142.157914,33.4555872 Z M148.157914,33.4555872 L148.157914,31.9555872 L151.157914,31.9555872 L151.157914,33.4555872 L148.157914,33.4555872 Z M154.157914,33.4555872 L154.157914,31.9555872 L157.157914,31.9555872 L157.157914,33.4555872 L154.157914,33.4555872 Z M160.157914,33.4555872 L160.157914,31.9555872 L163.157914,31.9555872 L163.157914,33.4555872 L160.157914,33.4555872 Z M166.157914,33.4555872 L166.157914,31.9555872 L169.157914,31.9555872 L169.157914,33.4555872 L166.157914,33.4555872 Z M172.157914,33.4555872 L172.157914,31.9555872 L175.157914,31.9555872 L175.157914,33.4555872 L172.157914,33.4555872 Z M178.157914,33.4555872 L178.157914,31.9555872 L181.157914,31.9555872 L181.157914,33.4555872 L178.157914,33.4555872 Z M184.157914,33.4555872 L184.157914,31.9555872 L187.157914,31.9555872 L187.157914,33.4555872 L184.157914,33.4555872 Z M190.157914,33.4555872 L190.157914,31.9555872 L193.157914,31.9555872 L193.157914,33.4555872 L190.157914,33.4555872 Z" id="Path-5-Copy" fill="#03D0FF" fill-rule="nonzero"></path>
                            <path d="M732.643472,33.4555872 L732.643472,31.9555872 L735.643472,31.9555872 L735.643472,33.4555872 L732.643472,33.4555872 Z M738.643472,33.4555872 L738.643472,31.9555872 L741.643472,31.9555872 L741.643472,33.4555872 L738.643472,33.4555872 Z M744.643472,33.4555872 L744.643472,31.9555872 L747.643472,31.9555872 L747.643472,33.4555872 L744.643472,33.4555872 Z M750.643472,33.4555872 L750.643472,31.9555872 L753.643472,31.9555872 L753.643472,33.4555872 L750.643472,33.4555872 Z M756.643472,33.4555872 L756.643472,31.9555872 L759.643472,31.9555872 L759.643472,33.4555872 L756.643472,33.4555872 Z M762.643472,33.4555872 L762.643472,31.9555872 L765.643472,31.9555872 L765.643472,33.4555872 L762.643472,33.4555872 Z M768.643472,33.4555872 L768.643472,31.9555872 L771.643472,31.9555872 L771.643472,33.4555872 L768.643472,33.4555872 Z M774.643472,33.4555872 L774.643472,31.9555872 L777.643472,31.9555872 L777.643472,33.4555872 L774.643472,33.4555872 Z M780.643472,33.4555872 L780.643472,31.9555872 L783.643472,31.9555872 L783.643472,33.4555872 L780.643472,33.4555872 Z M786.643472,33.4555872 L786.643472,31.9555872 L789.643472,31.9555872 L789.643472,33.4555872 L786.643472,33.4555872 Z M792.643472,33.4555872 L792.643472,31.9555872 L795.643472,31.9555872 L795.643472,33.4555872 L792.643472,33.4555872 Z M798.643472,33.4555872 L798.643472,31.9555872 L801.643472,31.9555872 L801.643472,33.4555872 L798.643472,33.4555872 Z M804.643472,33.4555872 L804.643472,31.9555872 L807.643472,31.9555872 L807.643472,33.4555872 L804.643472,33.4555872 Z M810.643472,33.4555872 L810.643472,31.9555872 L813.643472,31.9555872 L813.643472,33.4555872 L810.643472,33.4555872 Z M816.643472,33.4555872 L816.643472,31.9555872 L819.643472,31.9555872 L819.643472,33.4555872 L816.643472,33.4555872 Z M822.643472,33.4555872 L822.643472,31.9555872 L825.643472,31.9555872 L825.643472,33.4555872 L822.643472,33.4555872 Z M828.643472,33.4555872 L828.643472,31.9555872 L831.643472,31.9555872 L831.643472,33.4555872 L828.643472,33.4555872 Z M834.643472,33.4555872 L834.643472,31.9555872 L837.643472,31.9555872 L837.643472,33.4555872 L834.643472,33.4555872 Z M840.643472,33.4555872 L840.643472,31.9555872 L843.643472,31.9555872 L843.643472,33.4555872 L840.643472,33.4555872 Z M846.643472,33.4555872 L846.643472,31.9555872 L849.643472,31.9555872 L849.643472,33.4555872 L846.643472,33.4555872 Z M852.643472,33.4555872 L852.643472,31.9555872 L855.643472,31.9555872 L855.643472,33.4555872 L852.643472,33.4555872 Z M858.643472,33.4555872 L858.643472,31.9555872 L861.643472,31.9555872 L861.643472,33.4555872 L858.643472,33.4555872 Z M864.643472,33.4555872 L864.643472,31.9555872 L867.643472,31.9555872 L867.643472,33.4555872 L864.643472,33.4555872 Z M870.643472,33.4555872 L870.643472,31.9555872 L873.643472,31.9555872 L873.643472,33.4555872 L870.643472,33.4555872 Z M876.643472,33.4555872 L876.643472,31.9555872 L879.643472,31.9555872 L879.643472,33.4555872 L876.643472,33.4555872 Z M882.643472,33.4555872 L882.643472,31.9555872 L885.643472,31.9555872 L885.643472,33.4555872 L882.643472,33.4555872 Z M888.643472,33.4555872 L888.643472,31.9555872 L891.643472,31.9555872 L891.643472,33.4555872 L888.643472,33.4555872 Z" id="Path-5-Copy-3" fill="#03D0FF" fill-rule="nonzero"></path>
                        </g>
                        <g id="Group-16" transform="translate(296.000000, 22.000000)">
                            <g id="Path-6" fill-rule="nonzero">
                                <use fill="black" fill-opacity="1" filter="url(#filter-12)" xlink:href="#path-11"></use>
                                <use fill="#03D0FF" fill-rule="evenodd" xlink:href="#path-11"></use>
                            </g>
                            <ellipse id="Oval-2" fill="#03F8FF" cx="78.661986" cy="26.1686657" rx="3.21564694" ry="3.21664168"></ellipse>
                            <ellipse id="Oval-2-Copy" fill="#03F8FF" cx="237.60682" cy="13.302099" rx="3.21564694" ry="3.21664168"></ellipse>
                            <g id="Path-6-Copy" fill-rule="nonzero" transform="translate(202.234704, 30.304348) scale(-1, -1) translate(-202.234704, -30.304348) ">
                                <use fill="black" fill-opacity="1" filter="url(#filter-14)" xlink:href="#path-13"></use>
                                <use fill="#03D0FF" fill-rule="evenodd" xlink:href="#path-13"></use>
                            </g>
                        </g>
                    </g>
                </g>
            </g>
        </g>
    </g>
</svg>